<svg id="visual" viewBox="0 0 900 600" width="900" height="600" xmlns="http://www.w3.org/2000/svg" xmlns:xlink="http://www.w3.org/1999/xlink" version="1.1"><g transform="translate(475.26030293390716 303.7044551274003)"><path d="M147.2 -175.3C187.8 -141.5 215.5 -92.2 239.9 -30.9C264.4 30.4 285.5 103.7 258.3 147.6C231.1 191.4 155.6 205.8 87.7 222.5C19.8 239.2 -40.5 258.2 -107.7 252.6C-174.9 247 -249 216.7 -287.2 160.8C-325.3 104.9 -327.6 23.4 -314 -55.6C-300.3 -134.5 -270.7 -210.9 -215.7 -242.2C-160.7 -273.5 -80.3 -259.8 -13.5 -243.7C53.4 -227.6 106.7 -209.2 147.2 -175.3" fill="#E4BCA9"></path></g></svg>